<svg width="16" height="14" viewBox="0 0 16 14" fill="none" xmlns="http://www.w3.org/2000/svg">
<path d="M15.5312 7.53209H14.925H3.74563V2.26571C3.74563 1.57155 4.31034 1.00684 5.00447 1.00684C5.55341 1.00684 6.02112 1.36015 6.19287 1.85124C5.33544 2.00734 4.68309 2.75915 4.68309 3.66099V4.11559C4.68309 4.37446 4.89297 4.58434 5.15184 4.58434H8.31228C8.57116 4.58434 8.78103 4.37446 8.78103 4.11559V3.66099C8.78103 2.71984 8.07066 1.94196 7.158 1.83421C6.95694 0.829055 6.06784 0.0693359 5.00447 0.0693359C3.79341 0.0693359 2.80813 1.05462 2.80813 2.26571V7.53209H1.075H0.46875C0.209875 7.53209 0 7.74196 0 8.00084C0 8.25971 0.209875 8.46959 0.46875 8.46959H0.695312L1.13428 10.5381C1.29428 11.2923 1.71231 11.9748 2.31131 12.46C2.34747 12.4893 2.38422 12.5177 2.42147 12.5454L2.03119 13.2306C1.90306 13.4556 1.98156 13.7418 2.20653 13.8699C2.27975 13.9116 2.35944 13.9315 2.43806 13.9315C2.60103 13.9315 2.75941 13.8463 2.84581 13.6946L3.24484 12.9939C3.62344 13.1367 4.02709 13.2125 4.43563 13.2125H11.5644C11.9729 13.2125 12.3766 13.1367 12.7552 12.9939L13.1542 13.6946C13.2406 13.8463 13.399 13.9315 13.5619 13.9315C13.6406 13.9315 13.7203 13.9116 13.7935 13.8699C14.0184 13.7418 14.0969 13.4556 13.9688 13.2306L13.5785 12.5454C13.6158 12.5177 13.6526 12.4893 13.6887 12.46C14.2877 11.9748 14.7057 11.2923 14.8657 10.5381L15.3047 8.46959H15.5312C15.7901 8.46959 16 8.25971 16 8.00084C16 7.74196 15.7901 7.53209 15.5312 7.53209ZM7.84341 3.6468H5.62072C5.62831 3.15568 6.03019 2.75846 6.52306 2.75846H6.94103C7.43394 2.75846 7.83581 3.15568 7.84341 3.6468ZM13.9487 10.3436C13.7112 11.4627 12.7084 12.275 11.5643 12.275H4.43563C3.29156 12.275 2.28881 11.4627 2.05131 10.3436L1.65366 8.46959H14.3463L13.9487 10.3436Z" fill="black"/>
</svg>
