<svg width="24" height="24" viewBox="0 0 24 24" fill="none" xmlns="http://www.w3.org/2000/svg">
<mask id="path-1-inside-1_5974_2140" fill="white">
<path d="M10.968 10.968L15.093 8.90475L13.0298 13.0297L8.90476 15.093L10.968 10.968ZM22.5 12C22.5 14.0767 21.8842 16.1068 20.7304 17.8335C19.5767 19.5602 17.9368 20.906 16.0182 21.7007C14.0996 22.4955 11.9884 22.7034 9.95156 22.2982C7.91476 21.8931 6.04383 20.8931 4.57538 19.4246C3.10693 17.9562 2.1069 16.0852 1.70176 14.0484C1.29661 12.0116 1.50455 9.90045 2.29927 7.98182C3.09399 6.0632 4.4398 4.42332 6.16652 3.26957C7.89323 2.11581 9.9233 1.5 12 1.5C14.7839 1.50298 17.4529 2.61018 19.4213 4.57867C21.3898 6.54715 22.497 9.21614 22.5 12ZM17.3033 6.69675C17.1919 6.58553 17.0485 6.51215 16.8931 6.48698C16.7378 6.46181 16.5785 6.48613 16.4378 6.5565L10.074 9.738C9.92855 9.81062 9.81063 9.92854 9.73801 10.074L6.5565 16.4377C6.48639 16.5785 6.46228 16.7377 6.48757 16.8929C6.51287 17.048 6.5863 17.1914 6.69747 17.3025C6.80865 17.4137 6.95196 17.4871 7.10714 17.5124C7.26232 17.5377 7.42153 17.5136 7.56226 17.4435L13.926 14.262C14.0715 14.1894 14.1894 14.0715 14.262 13.926L17.4435 7.56225C17.5139 7.42151 17.5382 7.2622 17.513 7.10687C17.4879 6.95154 17.4145 6.80807 17.3033 6.69675Z"/>
</mask>
<path d="M10.968 10.968L3.81051 -3.3418L-0.957113 -0.957119L-3.34179 3.8105L10.968 10.968ZM15.093 8.90475L29.4028 16.0623L50.8857 -26.888L7.93551 -5.40505L15.093 8.90475ZM13.0298 13.0297L20.1873 27.3395L24.9549 24.9549L27.3395 20.1873L13.0298 13.0297ZM8.90476 15.093L-5.40504 7.9355L-26.888 50.8857L16.0623 29.4028L8.90476 15.093ZM22.5 12H38.5V11.9914L38.5 11.9829L22.5 12ZM12 1.5L12.0171 -14.5L12.0086 -14.5H12V1.5ZM17.3033 6.69675L28.6221 -4.61183L28.617 -4.61696L28.6118 -4.62208L17.3033 6.69675ZM16.4378 6.5565L23.5925 20.8677L23.5932 20.8673L16.4378 6.5565ZM10.074 9.738L17.221 24.053L17.2287 24.0492L10.074 9.738ZM9.73801 10.074L24.0492 17.2287L24.053 17.221L9.73801 10.074ZM6.5565 16.4377L-7.75467 9.283L-7.75961 9.2929L-7.76455 9.3028L6.5565 16.4377ZM7.56226 17.4435L14.6972 31.7646L14.7071 31.7596L14.717 31.7547L7.56226 17.4435ZM13.926 14.262L6.77898 -0.0530281L6.77127 -0.0491726L13.926 14.262ZM14.262 13.926L-0.0491703 6.77126L-0.0530221 6.77897L14.262 13.926ZM17.4435 7.56225L3.13267 0.406831L3.13233 0.407509L17.4435 7.56225ZM18.1255 25.2778L22.2505 23.2145L7.93551 -5.40505L3.81051 -3.3418L18.1255 25.2778ZM0.783212 1.74725L-1.28004 5.87225L27.3395 20.1873L29.4028 16.0623L0.783212 1.74725ZM5.87225 -1.28004L1.74725 0.783209L16.0623 29.4028L20.1873 27.3395L5.87225 -1.28004ZM23.2146 22.2505L25.2778 18.1255L-3.34179 3.8105L-5.40504 7.9355L23.2146 22.2505ZM6.5 12C6.5 10.9122 6.82257 9.84884 7.42692 8.94436L34.034 26.7226C36.9458 22.3647 38.5 17.2412 38.5 12H6.5ZM7.42692 8.94436C8.03127 8.03989 8.89025 7.33495 9.89525 6.91866L22.1411 36.4828C26.9834 34.4771 31.1221 31.0805 34.034 26.7226L7.42692 8.94436ZM9.89525 6.91866C10.9002 6.50238 12.0061 6.39346 13.073 6.60568L6.83011 37.9908C11.9706 39.0133 17.2989 38.4885 22.1411 36.4828L9.89525 6.91866ZM13.073 6.60568C14.1399 6.8179 15.1199 7.34172 15.8891 8.11091L-6.73833 30.7383C-3.03223 34.4444 1.68962 36.9683 6.83011 37.9908L13.073 6.60568ZM15.8891 8.11091C16.6583 8.8801 17.1821 9.86011 17.3943 10.927L-13.9908 17.1699C-12.9683 22.3104 -10.4444 27.0322 -6.73833 30.7383L15.8891 8.11091ZM17.3943 10.927C17.6065 11.9939 17.4976 13.0998 17.0813 14.1048L-12.4828 1.85889C-14.4885 6.70113 -15.0133 12.0294 -13.9908 17.1699L17.3943 10.927ZM17.0813 14.1048C16.6651 15.1098 15.9601 15.9687 15.0556 16.5731L-2.72261 -10.0339C-7.08051 -7.12209 -10.4771 -2.98335 -12.4828 1.85889L17.0813 14.1048ZM15.0556 16.5731C14.1512 17.1774 13.0878 17.5 12 17.5V-14.5C6.7588 -14.5 1.6353 -12.9458 -2.72261 -10.0339L15.0556 16.5731ZM11.9829 17.5C10.5292 17.4984 9.13553 16.9203 8.10763 15.8924L30.735 -6.73504C25.7702 -11.6999 19.0385 -14.4925 12.0171 -14.5L11.9829 17.5ZM8.10763 15.8924C7.07972 14.8645 6.50157 13.4708 6.50001 12.0171L38.5 11.9829C38.4925 4.9615 35.6999 -1.77016 30.735 -6.73504L8.10763 15.8924ZM28.6118 -4.62208C26.1257 -7.10592 22.9214 -8.74487 19.4525 -9.307L14.3338 22.281C11.1755 21.7692 8.25813 20.277 5.99467 18.0156L28.6118 -4.62208ZM19.4525 -9.307C15.9835 -9.86913 12.4256 -9.32596 9.28234 -7.75433L23.5932 20.8673C20.7314 22.2982 17.4921 22.7927 14.3338 22.281L19.4525 -9.307ZM9.28301 -7.75467L2.91926 -4.57317L17.2287 24.0492L23.5925 20.8677L9.28301 -7.75467ZM2.92698 -4.57703C-0.321609 -2.95511 -2.95515 -0.321529 -4.57702 2.92697L24.053 17.221C22.5764 20.1786 20.1787 22.5764 17.221 24.053L2.92698 -4.57703ZM-4.57317 2.91925L-7.75467 9.283L20.8677 23.5925L24.0492 17.2287L-4.57317 2.91925ZM-7.76455 9.3028C-9.33044 12.4458 -9.86893 16.0014 -9.30399 19.4671L22.2791 14.3187C22.7935 17.474 22.3032 20.7111 20.8776 23.5727L-7.76455 9.3028ZM-9.30399 19.4671C-8.73904 22.9328 -7.0992 26.1333 -4.61623 28.6162L18.0112 5.98882C20.2718 8.24943 21.7648 11.1633 22.2791 14.3187L-9.30399 19.4671ZM-4.61623 28.6162C-2.13325 31.0992 1.06727 32.739 4.53293 33.304L9.68134 1.72087C12.8366 2.23522 15.7506 3.72819 18.0112 5.98882L-4.61623 28.6162ZM4.53293 33.304C7.99865 33.8689 11.5543 33.3304 14.6972 31.7646L0.427307 3.12245C3.2888 1.69681 6.52599 1.20651 9.68134 1.72087L4.53293 33.304ZM14.717 31.7547L21.0807 28.5732L6.77127 -0.0491726L0.407515 3.13233L14.717 31.7547ZM21.073 28.577C24.3216 26.9551 26.9552 24.3215 28.577 21.073L-0.0530221 6.77897C1.42361 3.82139 3.82131 1.42364 6.77898 -0.053026L21.073 28.577ZM28.5732 21.0807L31.7547 14.717L3.13233 0.407509L-0.0491682 6.77126L28.5732 21.0807ZM31.7543 14.7177C33.3259 11.5745 33.8691 8.01655 33.307 4.54753L1.71905 9.66621C1.20725 6.50785 1.70181 3.26855 3.13267 0.406831L31.7543 14.7177ZM33.307 4.54753C32.7449 1.07853 31.1059 -2.12578 28.6221 -4.61183L5.98442 18.0053C3.72305 15.7419 2.23084 12.8246 1.71905 9.66621L33.307 4.54753Z" fill="#2FA2B9" mask="url(#path-1-inside-1_5974_2140)"/>
</svg>
