<svg width="24" height="24" viewBox="0 0 24 24" fill="none" xmlns="http://www.w3.org/2000/svg">
<mask id="path-1-inside-1_5974_2091" fill="white">
<path d="M12 1.5C9.9233 1.5 7.89323 2.11581 6.16652 3.26957C4.4398 4.42332 3.09399 6.0632 2.29927 7.98182C1.50455 9.90045 1.29661 12.0116 1.70176 14.0484C2.1069 16.0852 3.10693 17.9562 4.57538 19.4246C6.04383 20.8931 7.91476 21.8931 9.95156 22.2982C11.9884 22.7034 14.0996 22.4955 16.0182 21.7007C17.9368 20.906 19.5767 19.5602 20.7304 17.8335C21.8842 16.1068 22.5 14.0767 22.5 12C22.5 9.21523 21.3938 6.54451 19.4246 4.57538C17.4555 2.60625 14.7848 1.5 12 1.5ZM12 21C10.22 21 8.47992 20.4722 6.99987 19.4832C5.51983 18.4943 4.36628 17.0887 3.68509 15.4442C3.0039 13.7996 2.82567 11.99 3.17294 10.2442C3.5202 8.49836 4.37737 6.89471 5.63604 5.63604C6.89472 4.37737 8.49836 3.5202 10.2442 3.17293C11.99 2.82567 13.7996 3.0039 15.4442 3.68508C17.0887 4.36627 18.4943 5.51983 19.4832 6.99987C20.4722 8.47991 21 10.22 21 12C21 14.3869 20.0518 16.6761 18.364 18.364C16.6761 20.0518 14.387 21 12 21ZM16.44 6.555L10.0725 9.75C9.92866 9.82605 9.81105 9.94366 9.735 10.0875L6.555 16.44C6.49892 16.5545 6.47294 16.6813 6.4795 16.8086C6.48606 16.9359 6.52495 17.0594 6.5925 17.1675C6.66006 17.2756 6.75404 17.3647 6.86558 17.4263C6.97712 17.488 7.10255 17.5203 7.23 17.52C7.34428 17.5205 7.45715 17.4948 7.56 17.445L13.9275 14.25C14.0713 14.174 14.189 14.0563 14.265 13.9125L17.445 7.545C17.5144 7.40438 17.538 7.24555 17.5124 7.09084C17.4868 6.93613 17.4134 6.79332 17.3025 6.6825C17.19 6.57401 17.0463 6.50341 16.8917 6.48055C16.737 6.45769 16.5791 6.48372 16.44 6.555ZM13.035 13.035L8.9025 15.0975L10.965 10.965L15.0975 8.9025L13.035 13.035Z"/>
</mask>
<path d="M12 21V37V21ZM21 12H37H21ZM16.44 6.555L23.6156 20.8557L23.676 20.8254L23.7361 20.7946L16.44 6.555ZM10.0725 9.75L2.89688 -4.55071L2.74477 -4.47439L2.59432 -4.39485L10.0725 9.75ZM9.735 10.0875L-4.40985 2.60932L-4.4929 2.76642L-4.57245 2.92533L9.735 10.0875ZM6.555 16.44L-7.75245 9.27782L-7.78296 9.33877L-7.81294 9.39997L6.555 16.44ZM7.23 17.52L7.29549 1.52013L7.24672 1.51993L7.19795 1.52003L7.23 17.52ZM7.56 17.445L14.5345 31.8449L14.6354 31.796L14.7356 31.7457L7.56 17.445ZM13.9275 14.25L21.1031 28.5507L21.2552 28.4744L21.4057 28.3948L13.9275 14.25ZM14.265 13.9125L28.4099 21.3907L28.4964 21.2269L28.5792 21.0612L14.265 13.9125ZM17.445 7.545L31.7592 14.6937L31.7762 14.6597L31.793 14.6256L17.445 7.545ZM17.3025 6.6825L28.6105 -4.63691L28.5094 -4.73794L28.4065 -4.83715L17.3025 6.6825ZM13.035 13.035L20.18 27.351L24.9636 24.9636L27.351 20.18L13.035 13.035ZM8.9025 15.0975L-5.41352 7.95247L-26.7968 50.7968L16.0475 29.4135L8.9025 15.0975ZM10.965 10.965L3.81998 -3.35103L-0.963582 -0.963587L-3.35102 3.81998L10.965 10.965ZM15.0975 8.9025L29.4135 16.0475L50.7968 -26.7968L7.95248 -5.41353L15.0975 8.9025ZM12 -14.5C6.7588 -14.5 1.6353 -12.9458 -2.72261 -10.0339L15.0556 16.5731C14.1512 17.1774 13.0878 17.5 12 17.5V-14.5ZM-2.72261 -10.0339C-7.08051 -7.12209 -10.4771 -2.98335 -12.4828 1.85889L17.0813 14.1048C16.6651 15.1098 15.9601 15.9687 15.0556 16.5731L-2.72261 -10.0339ZM-12.4828 1.85889C-14.4885 6.70113 -15.0133 12.0294 -13.9908 17.1699L17.3943 10.927C17.6065 11.9939 17.4976 13.0998 17.0813 14.1048L-12.4828 1.85889ZM-13.9908 17.1699C-12.9683 22.3104 -10.4444 27.0322 -6.73833 30.7383L15.8891 8.11091C16.6583 8.8801 17.1821 9.8601 17.3943 10.927L-13.9908 17.1699ZM-6.73833 30.7383C-3.03224 34.4444 1.68961 36.9683 6.83011 37.9908L13.073 6.60568C14.1399 6.8179 15.1199 7.34172 15.8891 8.11091L-6.73833 30.7383ZM6.83011 37.9908C11.9706 39.0133 17.2989 38.4885 22.1411 36.4828L9.89525 6.91866C10.9002 6.50238 12.0061 6.39346 13.073 6.60568L6.83011 37.9908ZM22.1411 36.4828C26.9834 34.4771 31.1221 31.0805 34.0339 26.7226L7.42692 8.94436C8.03127 8.03989 8.89025 7.33494 9.89525 6.91866L22.1411 36.4828ZM34.0339 26.7226C36.9458 22.3647 38.5 17.2412 38.5 12H6.5C6.5 10.9122 6.82257 9.84883 7.42692 8.94436L34.0339 26.7226ZM38.5 12C38.5 4.97176 35.708 -1.76862 30.7383 -6.73833L8.11092 15.8891C7.07947 14.8576 6.5 13.4587 6.5 12H38.5ZM30.7383 -6.73833C25.7686 -11.708 19.0282 -14.5 12 -14.5V17.5C10.5413 17.5 9.14236 16.9205 8.11092 15.8891L30.7383 -6.73833ZM12 5C13.3845 5 14.7379 5.41054 15.889 6.17971L-1.88925 32.7867C2.22198 35.5338 7.05547 37 12 37V5ZM15.889 6.17971C17.0401 6.94888 17.9373 8.04213 18.4672 9.32122L-11.097 21.5671C-9.20479 26.1352 -6.00048 30.0397 -1.88925 32.7867L15.889 6.17971ZM18.4672 9.32122C18.997 10.6003 19.1356 12.0078 18.8655 13.3656L-12.5196 7.12274C-13.4843 11.9723 -12.9892 16.9989 -11.097 21.5671L18.4672 9.32122ZM18.8655 13.3656C18.5954 14.7235 17.9287 15.9708 16.9498 16.9497L-5.67767 -5.67767C-9.17398 -2.18136 -11.555 2.27322 -12.5196 7.12274L18.8655 13.3656ZM16.9498 16.9497C15.9708 17.9287 14.7235 18.5954 13.3656 18.8655L7.12275 -12.5196C2.27322 -11.555 -2.18135 -9.17398 -5.67767 -5.67767L16.9498 16.9497ZM13.3656 18.8655C12.0078 19.1356 10.6003 18.997 9.32122 18.4672L21.5671 -11.097C16.9989 -12.9892 11.9723 -13.4843 7.12275 -12.5196L13.3656 18.8655ZM9.32122 18.4672C8.04213 17.9373 6.94888 17.0401 6.17972 15.889L32.7867 -1.88926C30.0397 -6.00048 26.1352 -9.2048 21.5671 -11.097L9.32122 18.4672ZM6.17972 15.889C5.41055 14.7379 5 13.3845 5 12H37C37 7.05546 35.5338 2.22197 32.7867 -1.88926L6.17972 15.889ZM5 12C5 10.1435 5.7375 8.363 7.05026 7.05025L29.6777 29.6777C34.3661 24.9893 37 18.6304 37 12H5ZM7.05026 7.05025C8.36301 5.7375 10.1435 5 12 5V37C18.6304 37 24.9893 34.3661 29.6777 29.6777L7.05026 7.05025ZM9.26438 -7.74571L2.89688 -4.55071L17.2481 24.0507L23.6156 20.8557L9.26438 -7.74571ZM2.59432 -4.39485C-0.390862 -2.81663 -2.83159 -0.375933 -4.40985 2.60932L23.8799 17.5657C22.4537 20.2632 20.2482 22.4687 17.5507 23.8948L2.59432 -4.39485ZM-4.57245 2.92533L-7.75245 9.27782L20.8625 23.6022L24.0425 17.2497L-4.57245 2.92533ZM-7.81294 9.39997C-9.06545 11.9562 -9.64582 14.7894 -9.49929 17.6322L22.4583 15.985C22.5917 18.5732 22.0633 21.1527 20.923 23.48L-7.81294 9.39997ZM-9.49929 17.6322C-9.35276 20.4751 -8.48414 23.2336 -6.97547 25.6475L20.1605 8.68752C21.534 10.8852 22.3249 13.3967 22.4583 15.985L-9.49929 17.6322ZM-6.97547 25.6475C-5.46681 28.0613 -3.36785 30.0509 -0.876693 31.4284L14.6079 3.4243C16.8759 4.67841 18.7869 6.48984 20.1605 8.68752L-6.97547 25.6475ZM-0.876693 31.4284C1.61436 32.8058 4.41541 33.5257 7.26206 33.52L7.19795 1.52003C9.78968 1.51484 12.3399 2.17026 14.6079 3.4243L-0.876693 31.4284ZM7.16452 33.5199C9.71686 33.5303 12.2377 32.9573 14.5345 31.8449L0.58549 3.04513C2.67663 2.0323 4.9717 1.51062 7.29549 1.52013L7.16452 33.5199ZM14.7356 31.7457L21.1031 28.5507L6.75188 -0.050715L0.384381 3.14428L14.7356 31.7457ZM21.4057 28.3948C24.3909 26.8166 26.8316 24.3759 28.4099 21.3907L0.120154 6.43432C1.5463 3.73679 3.75179 1.53129 6.44932 0.10515L21.4057 28.3948ZM28.5792 21.0612L31.7592 14.6937L3.1308 0.396327L-0.0492014 6.76383L28.5792 21.0612ZM31.793 14.6256C33.3428 11.4851 33.8693 7.9379 33.2984 4.48272L1.72641 9.69896C1.20668 6.55321 1.686 3.32364 3.097 0.46441L31.793 14.6256ZM33.2984 4.48272C32.7275 1.02753 31.0881 -2.16184 28.6105 -4.63691L5.9945 18.0019C3.73881 15.7485 2.24615 12.8447 1.72641 9.69896L33.2984 4.48272ZM28.4065 -4.83715C25.8929 -7.26003 22.6851 -8.83692 19.2315 -9.34745L14.5519 22.3085C11.4076 21.8437 8.48704 20.4081 6.19855 18.2022L28.4065 -4.83715ZM19.2315 -9.34745C15.7779 -9.85798 12.251 -9.27664 9.14395 -7.68465L23.7361 20.7946C20.9072 22.2441 17.6962 22.7734 14.5519 22.3085L19.2315 -9.34745ZM5.88998 -1.28103L1.75748 0.781471L16.0475 29.4135L20.18 27.351L5.88998 -1.28103ZM23.2185 22.2425L25.281 18.11L-3.35102 3.81998L-5.41352 7.95247L23.2185 22.2425ZM18.11 25.281L22.2425 23.2185L7.95248 -5.41353L3.81998 -3.35103L18.11 25.281ZM0.781475 1.75748L-1.28102 5.88998L27.351 20.18L29.4135 16.0475L0.781475 1.75748Z" fill="black" mask="url(#path-1-inside-1_5974_2091)"/>
</svg>
