<svg width="24" height="24" viewBox="0 0 24 24" fill="none" xmlns="http://www.w3.org/2000/svg">
<g clip-path="url(#clip0_5855_1026)">
<path d="M0 12C0 18.6274 5.37258 24 12 24C18.6274 24 24 18.6274 24 12C24 5.37258 18.6274 0 12 0C5.37258 0 0 5.37258 0 12Z" fill="#5186EE"/>
<path d="M13.1589 18.7193V12.5886H15.3202L15.6439 10.1994H13.1588V8.67404C13.1588 7.98231 13.3605 7.51092 14.4024 7.51092L15.7313 7.51033V5.37343C15.5014 5.34436 14.7126 5.2793 13.7949 5.2793C11.879 5.2793 10.5673 6.3927 10.5673 8.43748V10.1994H8.40039V12.5886H10.5673V18.7193H13.1589Z" fill="white"/>
</g>
<defs>
<clipPath id="clip0_5855_1026">
<rect width="24" height="24" fill="white"/>
</clipPath>
</defs>
</svg>
