<svg width="20" height="20" viewBox="0 0 20 20" fill="none" xmlns="http://www.w3.org/2000/svg">
<path d="M18.3346 6.78618V3.22125C18.3346 2.11408 17.8327 1.6665 16.5856 1.6665H13.417C12.1699 1.6665 11.668 2.11408 11.668 3.22125V6.77832C11.668 7.89334 12.1699 8.33307 13.417 8.33307H16.5856C17.8327 8.34092 18.3346 7.89334 18.3346 6.78618Z" stroke="#A5A4AA" stroke-width="1.5" stroke-linecap="round" stroke-linejoin="round"/>
<path d="M18.3346 15.7511V12.5825C18.3346 11.3355 17.8327 10.8335 16.5856 10.8335H13.417C12.1699 10.8335 11.668 11.3355 11.668 12.5825V15.7511C11.668 16.9982 12.1699 17.5002 13.417 17.5002H16.5856C17.8327 17.5002 18.3346 16.9982 18.3346 15.7511Z" stroke="#A5A4AA" stroke-width="1.5" stroke-linecap="round" stroke-linejoin="round"/>
<path d="M9.16667 6.78618V3.22125C9.16667 2.11408 8.66471 1.6665 7.41765 1.6665H4.24902C3.00196 1.6665 2.5 2.11408 2.5 3.22125V6.77832C2.5 7.89334 3.00196 8.33307 4.24902 8.33307H7.41765C8.66471 8.34092 9.16667 7.89334 9.16667 6.78618Z" stroke="#A5A4AA" stroke-width="1.5" stroke-linecap="round" stroke-linejoin="round"/>
<path d="M9.16667 15.7511V12.5825C9.16667 11.3355 8.66471 10.8335 7.41765 10.8335H4.24902C3.00196 10.8335 2.5 11.3355 2.5 12.5825V15.7511C2.5 16.9982 3.00196 17.5002 4.24902 17.5002H7.41765C8.66471 17.5002 9.16667 16.9982 9.16667 15.7511Z" stroke="#A5A4AA" stroke-width="1.5" stroke-linecap="round" stroke-linejoin="round"/>
</svg>
