<svg width="44" height="44" viewBox="0 0 44 44" fill="none" xmlns="http://www.w3.org/2000/svg">
<circle cx="22" cy="22" r="22" fill="#EDF7F9"/>
<path d="M29.0593 28.6699L26.9193 24.3999L24.7793 28.6699" stroke="#2FA2B9" stroke-width="1.4" stroke-linecap="round" stroke-linejoin="round"/>
<path d="M25.1699 27.9102H28.6899" stroke="#2FA2B9" stroke-width="1.4" stroke-linecap="round" stroke-linejoin="round"/>
<path d="M26.9198 31.9998C24.1198 31.9998 21.8398 29.7298 21.8398 26.9198C21.8398 24.1198 24.1098 21.8398 26.9198 21.8398C29.7198 21.8398 31.9998 24.1098 31.9998 26.9198C31.9998 29.7298 29.7298 31.9998 26.9198 31.9998Z" stroke="#2FA2B9" stroke-width="1.4" stroke-linecap="round" stroke-linejoin="round"/>
<path d="M15.02 12H18.94C21.01 12 22.01 13 21.96 15.02V18.94C22.01 21.01 21.01 22.01 18.94 21.96H15.02C13 22 12 21 12 18.93V15.01C12 13 13 12 15.02 12Z" stroke="#2FA2B9" stroke-width="1.4" stroke-linecap="round" stroke-linejoin="round"/>
<path d="M19.0092 15.8501H14.9492" stroke="#2FA2B9" stroke-width="1.4" stroke-linecap="round" stroke-linejoin="round"/>
<path d="M16.9688 15.1699V15.8499" stroke="#2FA2B9" stroke-width="1.4" stroke-linecap="round" stroke-linejoin="round"/>
<path d="M17.9895 15.8398C17.9895 17.5898 16.6195 19.0098 14.9395 19.0098" stroke="#2FA2B9" stroke-width="1.4" stroke-linecap="round" stroke-linejoin="round"/>
<path d="M19.0101 19.01C18.2801 19.01 17.6202 18.62 17.1602 18" stroke="#2FA2B9" stroke-width="1.4" stroke-linecap="round" stroke-linejoin="round"/>
<path d="M12 25C12 28.87 15.13 32 19 32L17.95 30.25" stroke="#2FA2B9" stroke-width="1.4" stroke-linecap="round" stroke-linejoin="round"/>
<path d="M32 19C32 15.13 28.87 12 25 12L26.05 13.75" stroke="#2FA2B9" stroke-width="1.4" stroke-linecap="round" stroke-linejoin="round"/>
</svg>
