<svg width="24" height="24" viewBox="0 0 24 24" fill="none" xmlns="http://www.w3.org/2000/svg">
<path d="M22 7.97537V12.9652C22 13.2896 21.9875 13.6014 21.9499 13.9008C21.6621 17.269 19.6721 18.9406 16.005 18.9406H15.5044C15.1915 18.9406 14.8911 19.0903 14.7034 19.3398L13.2015 21.3357C12.5382 22.2214 11.4618 22.2214 10.7985 21.3357L9.2966 19.3398C9.1339 19.1277 8.77096 18.9406 8.49562 18.9406H7.995C4.00251 18.9406 2 17.9551 2 12.9652V7.97537C2 4.3203 3.68962 2.33683 7.05633 2.04991C7.3567 2.01249 7.66959 2 7.995 2H16.005C19.9975 2 22 3.99596 22 7.97537Z" stroke="black" stroke-width="1.5" stroke-miterlimit="10" stroke-linecap="round" stroke-linejoin="round"/>
<path d="M16.3868 11.0446H16.398" stroke="black" stroke-width="2" stroke-linecap="round" stroke-linejoin="round"/>
<path d="M12.0069 11.0446H12.0181" stroke="black" stroke-width="2" stroke-linecap="round" stroke-linejoin="round"/>
<path d="M7.62601 11.0446H7.63727" stroke="black" stroke-width="2" stroke-linecap="round" stroke-linejoin="round"/>
</svg>
