<svg width="28" height="28" viewBox="0 0 28 28" fill="none" xmlns="http://www.w3.org/2000/svg">
<path d="M26.502 8.96922V15.2065C26.502 15.612 26.4863 16.0018 26.4394 16.376C26.0795 20.5862 23.5921 22.6757 19.0082 22.6757H18.3824C17.9913 22.6757 17.6158 22.8628 17.3812 23.1747L15.5038 25.6697C14.6747 26.7768 13.3292 26.7768 12.5001 25.6697L10.6227 23.1747C10.4193 22.9096 9.96566 22.6757 9.62148 22.6757H8.9957C4.00509 22.6757 1.50195 21.4439 1.50195 15.2065V8.96922C1.50195 4.40037 3.61398 1.92103 7.82236 1.56239C8.19783 1.51561 8.58895 1.5 8.9957 1.5H19.0082C23.9988 1.5 26.502 3.99495 26.502 8.96922Z" stroke="#2FA2B9" stroke-width="1.5" stroke-miterlimit="10" stroke-linecap="round" stroke-linejoin="round"/>
<path d="M19.4861 12.8051H19.5002" stroke="#2FA2B9" stroke-width="2" stroke-linecap="round" stroke-linejoin="round"/>
<path d="M14.0115 12.8051H14.0256" stroke="#2FA2B9" stroke-width="2" stroke-linecap="round" stroke-linejoin="round"/>
<path d="M8.53495 12.8051H8.54903" stroke="#2FA2B9" stroke-width="2" stroke-linecap="round" stroke-linejoin="round"/>
</svg>
