<svg width="44" height="44" viewBox="0 0 44 44" fill="none" xmlns="http://www.w3.org/2000/svg">
<circle cx="22" cy="22" r="22" fill="#EDF7F9"/>
<path d="M18 12V15" stroke="#2FA2B9" stroke-width="1.4" stroke-miterlimit="10" stroke-linecap="round" stroke-linejoin="round"/>
<path d="M26 12V15" stroke="#2FA2B9" stroke-width="1.4" stroke-miterlimit="10" stroke-linecap="round" stroke-linejoin="round"/>
<path d="M13.5 19.0898H30.5" stroke="#2FA2B9" stroke-width="1.4" stroke-miterlimit="10" stroke-linecap="round" stroke-linejoin="round"/>
<path d="M31 18.5V27C31 30 29.5 32 26 32H18C14.5 32 13 30 13 27V18.5C13 15.5 14.5 13.5 18 13.5H26C29.5 13.5 31 15.5 31 18.5Z" stroke="#2FA2B9" stroke-width="1.4" stroke-miterlimit="10" stroke-linecap="round" stroke-linejoin="round"/>
<path d="M25.6937 23.7002H25.7027" stroke="#2FA2B9" stroke-width="1.4" stroke-linecap="round" stroke-linejoin="round"/>
<path d="M25.6937 26.7002H25.7027" stroke="#2FA2B9" stroke-width="1.4" stroke-linecap="round" stroke-linejoin="round"/>
<path d="M21.9945 23.7002H22.0035" stroke="#2FA2B9" stroke-width="1.4" stroke-linecap="round" stroke-linejoin="round"/>
<path d="M21.9945 26.7002H22.0035" stroke="#2FA2B9" stroke-width="1.4" stroke-linecap="round" stroke-linejoin="round"/>
<path d="M18.2953 23.7002H18.3043" stroke="#2FA2B9" stroke-width="1.4" stroke-linecap="round" stroke-linejoin="round"/>
<path d="M18.2953 26.7002H18.3043" stroke="#292D32" stroke-width="1.4" stroke-linecap="round" stroke-linejoin="round"/>
</svg>
