<svg width="44" height="44" viewBox="0 0 44 44" fill="none" xmlns="http://www.w3.org/2000/svg">
<circle cx="22" cy="22" r="22" fill="#EDF7F9"/>
<path d="M22.1605 20.87C22.0605 20.86 21.9405 20.86 21.8305 20.87C19.4505 20.79 17.5605 18.84 17.5605 16.44C17.5605 13.99 19.5405 12 22.0005 12C24.4505 12 26.4405 13.99 26.4405 16.44C26.4305 18.84 24.5405 20.79 22.1605 20.87Z" stroke="#2FA2B9" stroke-width="1.5" stroke-linecap="round" stroke-linejoin="round"/>
<path d="M17.1607 24.56C14.7407 26.18 14.7407 28.82 17.1607 30.43C19.9107 32.27 24.4207 32.27 27.1707 30.43C29.5907 28.81 29.5907 26.17 27.1707 24.56C24.4307 22.73 19.9207 22.73 17.1607 24.56Z" stroke="#2FA2B9" stroke-width="1.5" stroke-linecap="round" stroke-linejoin="round"/>
</svg>
