<svg width="20" height="20" viewBox="0 0 20 20" fill="none" xmlns="http://www.w3.org/2000/svg">
<path d="M12.974 2.1665C13.1735 2.18797 13.3157 2.19977 13.4249 2.20579C13.5112 2.29625 13.6159 2.34949 13.7148 2.37533C13.9293 2.43132 14.1239 2.36626 14.2319 2.31292C14.2569 2.30056 14.2834 2.28589 14.3102 2.26864C15.2136 2.42627 15.8403 2.80977 16.2587 3.33942C16.7447 3.95452 17 4.83041 17 5.94578V13.2206C17 14.4308 16.705 15.3623 16.1395 15.9877C15.5822 16.6041 14.6924 16.9998 13.3333 16.9998H6.66667C5.30761 16.9998 4.4178 16.6041 3.86047 15.9877C3.295 15.3623 3 14.4308 3 13.2206V5.94578C3 4.83041 3.25533 3.95452 3.74129 3.33942C4.2169 2.73741 4.96154 2.32422 6.07563 2.21688L6.20978 2.21137L5.44416 3.16054L5.33333 3.29793V3.47445C5.33333 3.67979 5.42775 3.84747 5.5561 3.95846C5.66852 4.05567 5.79519 4.10104 5.88477 4.12453C6.06517 4.17184 6.26301 4.17235 6.40682 4.16408C6.55499 4.15556 6.7047 4.13387 6.80808 4.10661C6.83268 4.10012 6.87483 4.08818 6.91924 4.0685C6.9381 4.06014 6.98608 4.03813 7.03711 3.99757C7.03739 3.99734 7.03772 3.99708 7.03809 3.99679C7.06189 3.97796 7.25393 3.82606 7.22647 3.55171C7.21741 3.46119 7.18795 3.38851 7.15086 3.33095C7.18863 3.23244 7.24153 3.1101 7.3062 2.96789C7.33898 2.89579 7.37507 2.81798 7.41189 2.73863C7.47904 2.59386 7.54858 2.44394 7.6048 2.31409C7.62609 2.26492 7.64694 2.21534 7.66644 2.1665H12.7083H12.974ZM6.13498 3.1562C6.13502 3.15617 6.1361 3.15645 6.13808 3.15715C6.13592 3.15657 6.13493 3.15623 6.13498 3.1562ZM6.66667 13.5066H10C10.6303 13.5066 11.125 12.9791 11.125 12.3647C11.125 11.7503 10.6303 11.2228 10 11.2228H6.66667C6.03637 11.2228 5.54167 11.7503 5.54167 12.3647C5.54167 12.9791 6.03637 13.5066 6.66667 13.5066ZM6.66667 9.22732H13.3333C13.9636 9.22732 14.4583 8.69981 14.4583 8.08542C14.4583 7.47103 13.9636 6.94353 13.3333 6.94353H6.66667C6.03637 6.94353 5.54167 7.47103 5.54167 8.08542C5.54167 8.69981 6.03637 9.22732 6.66667 9.22732Z" fill="#2FA2B9" stroke="#2FA2B9"/>
</svg>
