<svg width="18" height="18" viewBox="0 0 18 18" fill="none" xmlns="http://www.w3.org/2000/svg">
<path d="M9 4.83008V7.32758" stroke="black" stroke-miterlimit="10" stroke-linecap="round"/>
<path d="M9.01517 1.5C6.25517 1.5 4.02017 3.735 4.02017 6.495V8.07C4.02017 8.58 3.81017 9.345 3.54767 9.78L2.59517 11.37C2.01017 12.3525 2.41517 13.4475 3.49517 13.8075C7.08017 15 10.9577 15 14.5427 13.8075C15.5552 13.47 15.9902 12.285 15.4427 11.37L14.4902 9.78C14.2277 9.345 14.0177 8.5725 14.0177 8.07V6.495C14.0102 3.75 11.7602 1.5 9.01517 1.5Z" stroke="black" stroke-miterlimit="10" stroke-linecap="round"/>
<path d="M11.4979 14.1152C11.4979 15.4877 10.3729 16.6127 9.00043 16.6127C8.31793 16.6127 7.68793 16.3277 7.23793 15.8777C6.78793 15.4277 6.50293 14.7977 6.50293 14.1152" stroke="black" stroke-miterlimit="10"/>
</svg>
