<svg width="44" height="44" viewBox="0 0 44 44" fill="none" xmlns="http://www.w3.org/2000/svg">
<circle cx="22" cy="22" r="22" fill="#EDF7F9"/>
<path d="M22 16.4399V19.7699" stroke="#2FA2B9" stroke-width="1.5" stroke-miterlimit="10" stroke-linecap="round"/>
<path d="M22.0209 12C18.3409 12 15.3609 14.98 15.3609 18.66V20.76C15.3609 21.44 15.0809 22.46 14.7309 23.04L13.4609 25.16C12.6809 26.47 13.2209 27.93 14.6609 28.41C19.4409 30 24.6109 30 29.3909 28.41C30.7409 27.96 31.3209 26.38 30.5909 25.16L29.3209 23.04C28.9709 22.46 28.6909 21.43 28.6909 20.76V18.66C28.6809 15 25.6809 12 22.0209 12Z" stroke="#2FA2B9" stroke-width="1.5" stroke-miterlimit="10" stroke-linecap="round"/>
<path d="M25.3299 28.8198C25.3299 30.6498 23.8299 32.1498 21.9999 32.1498C21.0899 32.1498 20.2499 31.7698 19.6499 31.1698C19.0499 30.5698 18.6699 29.7298 18.6699 28.8198" stroke="#2FA2B9" stroke-width="1.5" stroke-miterlimit="10"/>
</svg>
