<svg width="44" height="44" viewBox="0 0 44 44" fill="none" xmlns="http://www.w3.org/2000/svg">
<circle cx="22" cy="22" r="22" fill="#EDF7F9"/>
<path d="M16 20V18C16 14.69 17 12 22 12C27 12 28 14.69 28 18V20" stroke="#2FA2B9" stroke-width="1.5" stroke-linecap="round" stroke-linejoin="round"/>
<path d="M22 28.5C23.3807 28.5 24.5 27.3807 24.5 26C24.5 24.6193 23.3807 23.5 22 23.5C20.6193 23.5 19.5 24.6193 19.5 26C19.5 27.3807 20.6193 28.5 22 28.5Z" stroke="#2FA2B9" stroke-width="1.5" stroke-linecap="round" stroke-linejoin="round"/>
<path d="M27 32H17C13 32 12 31 12 27V25C12 21 13 20 17 20H27C31 20 32 21 32 25V27C32 31 31 32 27 32Z" stroke="#2FA2B9" stroke-width="1.5" stroke-linecap="round" stroke-linejoin="round"/>
</svg>
