<svg width="24" height="24" viewBox="0 0 24 24" fill="none" xmlns="http://www.w3.org/2000/svg">
<path d="M14.8308 7.52968L14.8316 7.5294C15.0222 7.46098 15.2116 7.48565 15.366 7.5648C15.5037 7.63536 15.5982 7.74017 15.6588 7.82225C15.7796 7.98581 15.8579 8.18681 15.9057 8.3375C15.9546 8.49136 15.99 8.65236 16.0003 8.76605C16.0026 8.79127 16.0067 8.84376 16.0005 8.90249L16.0005 8.90281C15.9983 8.92387 15.9899 9.0032 15.9446 9.09029C15.9202 9.13724 15.8673 9.22104 15.7651 9.28528C15.6482 9.3587 15.5127 9.37751 15.3903 9.35081C15.2085 9.31119 15.1123 9.18549 15.0977 9.16643C15.0972 9.16579 15.0968 9.16526 15.0965 9.16487C15.0665 9.12654 15.0474 9.09101 15.0378 9.07239C15.0171 9.03222 15.0012 8.99105 14.9897 8.95893C14.9441 8.83188 14.8025 8.76292 14.6695 8.8105C14.6694 8.81053 14.6693 8.81057 14.6692 8.8106L14.6117 8.65023C13.7549 8.89407 12.8779 9 12.0005 9C11.4892 9 11.2218 8.96942 10.9611 8.8017C10.9261 8.77917 10.8879 8.75184 10.8613 8.73281C10.8546 8.72801 10.8487 8.72373 10.8437 8.7202C10.8201 8.70352 10.7969 8.68758 10.7704 8.67098C10.7623 8.66591 10.7539 8.66077 10.7451 8.65553C10.6751 8.6139 10.5632 8.55628 10.3677 8.48382C10.3606 8.48821 10.3515 8.49415 10.3403 8.50208C10.3402 8.50216 10.3397 8.50254 10.3388 8.50318C10.3303 8.50932 10.2888 8.5394 10.2672 8.55348L10.2667 8.55376C10.2634 8.55592 10.2582 8.55931 10.2514 8.56352C10.2307 8.57624 10.195 8.59644 10.1513 8.61283L10.1502 8.61325C10.12 8.62463 9.8885 8.7118 9.66573 8.54561C9.5857 8.4859 9.53684 8.4154 9.50706 8.34906L9.34138 8.8106C9.3412 8.81053 9.34103 8.81047 9.34085 8.81041M14.8308 7.52968L14.612 8.65013C14.716 8.62055 14.8196 8.58894 14.9229 8.55524C14.9327 8.58075 14.9428 8.60907 14.9526 8.64C14.9688 8.6911 14.9817 8.74053 14.9909 8.78219C14.9955 8.80288 14.9988 8.82046 15.0012 8.83429L15.0037 8.8507C15.0043 8.85487 15.0044 8.85682 15.0044 8.85676L15.0042 8.85405L15.0039 8.84558C15.0037 8.83977 15.0035 8.82199 15.0061 8.79735L15.0062 8.79634C15.0077 8.78183 15.0151 8.71028 15.0573 8.62903C15.0791 8.58713 15.1256 8.51255 15.2138 8.45126C15.22 8.44694 15.2265 8.44269 15.2331 8.43852C15.2825 8.40747 15.3353 8.38631 15.389 8.37433C15.4608 8.35832 15.5342 8.3587 15.6032 8.37376C15.7077 8.39652 15.7779 8.44691 15.8115 8.47453C15.8479 8.50447 15.872 8.53321 15.8847 8.54956C15.9099 8.58181 15.9237 8.6085 15.9272 8.61533C15.9283 8.61752 15.9293 8.61953 15.9302 8.62132C15.9331 8.62722 15.9346 8.63077 15.9346 8.63101C15.9347 8.63125 15.9335 8.62824 15.9309 8.62107C15.7685 8.1687 15.3738 7.87085 14.9315 7.80782C14.9314 7.8078 14.9313 7.80779 14.9311 7.80777C14.7352 7.77991 14.5299 7.79813 14.3314 7.8694L14.3308 7.86959C13.5791 8.14042 12.7897 8.27555 12.0005 8.275C11.6465 8.27475 11.2926 8.24721 10.9421 8.19239C10.7911 8.16877 10.6407 8.14009 10.4913 8.10634C10.4993 8.07687 10.5068 8.04226 10.5113 8.00391C10.513 7.98974 10.5142 7.97506 10.5149 7.95994C10.5149 7.95987 10.5149 7.95979 10.515 7.95971C10.5196 7.86241 10.5023 7.74696 10.4307 7.63222C10.3893 7.5658 10.3404 7.51589 10.2892 7.47846M14.8308 7.52968C13.9229 7.85729 12.9714 8 12.0005 8C11.7503 8 11.6256 7.99023 11.5576 7.97844C11.5176 7.9715 11.5112 7.96701 11.505 7.96264C11.5042 7.96202 11.5033 7.96141 11.5023 7.9608C11.4896 7.95258 11.4793 7.94526 11.4598 7.93131C11.4499 7.9242 11.4375 7.91537 11.4212 7.90382C11.3788 7.87385 11.325 7.83695 11.2562 7.79604C11.1177 7.71365 10.9367 7.62585 10.6702 7.52968L10.6694 7.5294C10.5322 7.48013 10.404 7.46859 10.2892 7.47846M14.8308 7.52968L10.2892 7.47846M9.34085 8.81041L9.50705 8.34905C9.50521 8.34493 9.50344 8.34084 9.50173 8.33676C9.4682 8.25641 9.46203 8.18367 9.46122 8.1458C9.46097 8.13445 9.46121 8.12624 9.46134 8.12189C9.46135 8.12126 9.46137 8.12071 9.46138 8.12025C9.46295 8.05771 9.47541 8.00606 9.48083 7.98448C9.49338 7.9345 9.51277 7.87876 9.52989 7.83107L9.5337 7.82046L9.53382 7.82051C9.53314 7.82228 9.53178 7.82587 9.5301 7.83114C9.52528 7.84627 9.51779 7.87526 9.51595 7.9149C9.51424 7.95191 9.51738 8.00526 9.537 8.06502C9.54631 8.09338 9.55933 8.12319 9.5773 8.15338C9.57735 8.15347 9.5774 8.15355 9.57745 8.15363C9.57903 8.15628 9.58064 8.15892 9.5823 8.16157C9.61193 8.20907 9.64924 8.24912 9.69074 8.28083C9.73154 8.312 9.77228 8.33202 9.80743 8.34473C9.84361 8.35782 9.87596 8.36398 9.90171 8.36673C9.90629 8.35323 9.91062 8.33771 9.91407 8.32027C9.92454 8.26735 9.92713 8.19399 9.90059 8.11319C9.87355 8.03085 9.82566 7.96951 9.77843 7.92906C9.77382 7.92511 9.76926 7.9214 9.76478 7.91791C9.76268 7.91627 9.76059 7.91468 9.75852 7.91314C9.75159 7.90797 9.74486 7.90335 9.73843 7.89921C9.71229 7.88239 9.69094 7.87363 9.67978 7.86959C9.71579 7.88257 9.75189 7.89523 9.78808 7.90758C9.86102 7.93248 9.9343 7.95612 10.0079 7.97849C10.0605 7.99449 10.1133 8.00984 10.1662 8.02454C10.2637 8.05162 10.3616 8.0765 10.4599 8.09919C10.4579 8.07217 10.453 8.03792 10.4417 7.9997C10.4401 7.99418 10.4383 7.98844 10.4363 7.98251C10.4132 7.91358 10.3642 7.81906 10.2637 7.74408C10.1527 7.66124 10.0349 7.644 9.95486 7.64633C9.88108 7.64847 9.82577 7.66691 9.80043 7.6764C9.77208 7.68703 9.75153 7.69794 9.7419 7.70328C9.73128 7.70916 9.72401 7.71384 9.72151 7.71547C9.71761 7.71801 9.71721 7.71847 9.72722 7.71125C9.73419 7.70622 9.74881 7.69558 9.76318 7.68542C9.83729 7.63305 10.029 7.50081 10.2892 7.47846M9.34085 8.81041C9.21629 8.76558 9.027 8.6581 8.95052 8.42521C8.87775 8.20363 8.9572 8.01612 9.00939 7.92482C9.11149 7.74622 9.2852 7.61769 9.40449 7.54472C9.52002 7.47405 9.71276 7.37695 9.91321 7.36927C9.98203 7.36664 10.145 7.37309 10.2892 7.47846M9.34085 8.81041L10.2892 7.47846M18.0636 21.2032L18.0631 21.2029L13.1875 18.4954C13.1867 18.4949 13.1859 18.4945 13.1851 18.494C12.8362 18.2964 12.4088 18.2125 12.0091 18.2125C11.608 18.2125 11.1791 18.2969 10.827 18.4932C10.8269 18.4932 10.8268 18.4933 10.8268 18.4933L5.94914 21.202C5.94888 21.2022 5.94862 21.2023 5.94835 21.2024C5.25493 21.584 4.73444 21.5526 4.41655 21.3654C4.09893 21.1784 3.82031 20.7395 3.82031 19.95V5.86C3.82031 4.0153 5.3273 2.5 7.18031 2.5H16.8203C18.6725 2.5 20.181 4.01472 20.1903 5.86119V19.95C20.1903 20.7459 19.9108 21.1864 19.5941 21.3729C19.2776 21.5593 18.7579 21.5899 18.0636 21.2032ZM14.8525 8.41382C14.8512 8.41237 14.8505 8.41156 14.8506 8.41153C14.8506 8.4115 14.8513 8.41221 14.8525 8.41382ZM10.3891 8.47234C10.389 8.47239 10.3883 8.47272 10.3869 8.47317C10.3884 8.47251 10.3891 8.47229 10.3891 8.47234Z" fill="#2FA2B9" stroke="#2FA2B9"/>
</svg>
