<svg width="16" height="18" viewBox="0 0 16 18" fill="none" xmlns="http://www.w3.org/2000/svg">
<path d="M13.0927 16.5965L13.0932 16.5968C13.6559 16.9102 14.056 16.8746 14.2858 16.7393C14.5159 16.6038 14.7416 16.2704 14.7416 15.6253V3.88486C14.7339 2.39171 13.5138 1.16699 12.0166 1.16699H3.98327C2.48525 1.16699 1.2666 2.39229 1.2666 3.88366V15.6253C1.2666 16.2648 1.49146 16.597 1.72242 16.733C1.95366 16.8692 2.35458 16.9052 2.91632 16.5961C2.91658 16.596 2.91684 16.5958 2.9171 16.5957L6.9814 14.3386L13.0927 16.5965ZM13.0927 16.5965L9.02794 14.3393M13.0927 16.5965L9.02794 14.3393M10.3304 5.19667L10.3311 5.19639C10.5136 5.13089 10.6955 5.15467 10.8427 5.23017C10.9732 5.29707 11.0612 5.39545 11.1157 5.46937C11.2244 5.6166 11.293 5.79433 11.3339 5.92303C11.3757 6.05492 11.4069 6.19523 11.4163 6.29781C11.4183 6.32025 11.4224 6.37055 11.4163 6.42782L11.4163 6.42825C11.4141 6.44876 11.4058 6.52743 11.3608 6.614C11.3365 6.66078 11.2837 6.74446 11.1816 6.80862C11.0648 6.88197 10.9295 6.90076 10.8071 6.87409C10.6257 6.83453 10.5298 6.70913 10.5155 6.69052C10.5151 6.68988 10.5147 6.68937 10.5144 6.68899C10.4848 6.65117 10.4661 6.61637 10.457 6.59874C10.4374 6.56053 10.4227 6.52231 10.4127 6.49426C10.3904 6.43212 10.3203 6.39649 10.2522 6.42092L10.2043 6.28746C9.48029 6.49411 8.73984 6.58366 8.00008 6.58366C7.57375 6.58366 7.32843 6.55933 7.08887 6.40515C7.05766 6.38507 7.02314 6.36036 7.00119 6.34465C6.996 6.34093 6.99151 6.33772 6.98793 6.33519C6.96324 6.31772 6.94004 6.30198 6.9113 6.28489L10.3304 5.19667ZM10.3304 5.19667C9.58411 5.46594 8.80095 5.58366 8.00008 5.58366C7.79235 5.58366 7.69447 5.57545 7.64526 5.56692C7.63773 5.56562 7.63251 5.56449 7.62917 5.56368C7.62067 5.55818 7.61402 5.55343 7.59993 5.54335C7.59164 5.53742 7.58078 5.52966 7.56545 5.51881C7.52918 5.49315 7.48238 5.46104 7.42245 5.4254C7.30166 5.35356 7.1459 5.27826 6.91978 5.19667L6.91901 5.19639C6.80377 5.15503 6.69554 5.14243 6.59734 5.14721C6.46252 5.06071 6.31814 5.05579 6.25749 5.05811C6.06861 5.06534 5.89296 5.15552 5.79327 5.21651C5.68981 5.27979 5.53069 5.39587 5.43515 5.56299C5.38624 5.64854 5.30807 5.83055 5.37927 6.04734C5.45417 6.27541 5.63901 6.37881 5.75547 6.42073C7.20667 6.94352 8.80153 6.94352 10.2527 6.42073L10.2047 6.28735L10.3304 5.19667ZM9.02794 14.3393C8.72162 14.1658 8.35045 14.0941 8.00723 14.0941C7.66287 14.0941 7.29088 14.1663 6.98219 14.3382L9.02794 14.3393Z" fill="white" stroke="white"/>
</svg>
