<svg width="16" height="16" viewBox="0 0 16 16" fill="none" xmlns="http://www.w3.org/2000/svg">
<path d="M15.974 10.781C15.9987 10.715 16.0073 10.6423 15.9847 10.569L14.6667 6.28562V2.33365C14.6667 1.41499 13.9193 0.666992 13 0.666992H3C2.08066 0.666992 1.33334 1.41499 1.33334 2.33365V6.28565L0.0153437 10.569C-0.0073125 10.6416 0.00134375 10.7143 0.026 10.781C0.01 10.8516 0 10.9243 0 11.0003V13.667V15.0003C0 15.1843 0.149344 15.3336 0.333344 15.3336H1.66669C1.85066 15.3336 2 15.1843 2 15.0003V14.0003H14V15.0003C14 15.1843 14.1493 15.3336 14.3333 15.3336H15.6667C15.8507 15.3336 16 15.1843 16 15.0003V13.667V11.0003C16 10.9243 15.99 10.8516 15.974 10.781ZM2 2.33365C2 1.7823 2.44866 1.33365 3 1.33365H13C13.5513 1.33365 14 1.7823 14 2.33365V6.0003H13.094L12.7833 4.75765C12.6713 4.31165 12.272 4.0003 11.8127 4.0003H9.66666C9.11531 4.0003 8.66666 4.44896 8.66666 5.0003V6.0003H7.33331V5.00096C7.33331 4.44962 6.88466 4.00096 6.33331 4.00096H4.18731C3.72797 4.00096 3.32866 4.31296 3.21666 4.7583L2.906 6.0003H2V2.33365ZM12.4093 6.53896C12.3453 6.6203 12.2493 6.66696 12.146 6.66696H9.66666C9.48331 6.66696 9.33331 6.51762 9.33331 6.33362V5.0003C9.33331 4.8163 9.48331 4.66696 9.66666 4.66696H11.8133C11.9667 4.66696 12.0993 4.7703 12.1367 4.91896L12.47 6.2523C12.4953 6.35296 12.4733 6.45696 12.4093 6.53896ZM6.66734 5.0003V6.3303C6.66734 6.33165 6.66669 6.3323 6.66669 6.33365C6.66669 6.3343 6.66669 6.33499 6.66669 6.33499C6.66603 6.51834 6.51669 6.66699 6.33403 6.66699H3.85469C3.75069 6.66699 3.65534 6.62034 3.59134 6.53899C3.52734 6.45699 3.50534 6.35234 3.53069 6.25234L3.86403 4.91899C3.90138 4.77099 4.03403 4.66699 4.18803 4.66699H6.33403C6.51734 4.66696 6.66734 4.8163 6.66734 5.0003ZM1.91266 6.66696H2.916C2.95134 6.76696 2.99734 6.86296 3.06466 6.94962C3.25666 7.19362 3.544 7.33362 3.854 7.33362H6.33334C6.76734 7.33362 7.134 7.05362 7.272 6.66696H8.728C8.866 7.0543 9.23266 7.33362 9.66666 7.33362H12.146C12.456 7.33362 12.7427 7.19362 12.9347 6.94962C13.002 6.86362 13.048 6.76696 13.0833 6.66696H14.0873L15.1167 10.0123C15.078 10.0076 15.04 10.0003 15 10.0003H1C0.96 10.0003 0.922 10.0076 0.884 10.0123L1.91266 6.66696ZM1.33334 14.667H0.666656V14.0003H1.33331V14.667H1.33334ZM15.3333 14.667H14.6667V14.0003H15.3333V14.667ZM15.3333 13.3336H0.666656V11.0003C0.666656 10.8163 0.816656 10.667 1 10.667H15C15.1833 10.667 15.3333 10.8163 15.3333 11.0003V13.3336Z" fill="black"/>
</svg>
